HIERARCHY
ROOT Hips
{
	OFFSET -3.958830 18.904000 13.208200
	CHANNELS 6 Xposition Yposition Zposition Zrotation Yrotation Xrotation 
	JOINT LHipJoint
	{
		OFFSET 0.000000 0.000000 0.000000
		CHANNELS 3 Zrotation Yrotation Xrotation
		JOINT LeftUpLeg
		{
			OFFSET 1.800000 -1.400000 0.085000
			CHANNELS 3 Zrotation Yrotation Xrotation
			JOINT LeftLeg
			{
				OFFSET 2.215000 -6.000000 0.000000
				CHANNELS 3 Zrotation Yrotation Xrotation
				JOINT LeftFoot
				{
					OFFSET 2.500000 -6.900000 0.000000
					CHANNELS 3 Zrotation Yrotation Xrotation
					JOINT LeftToeBase
					{
						OFFSET 0.200000 -0.500000 1.950000
						CHANNELS 3 Zrotation Yrotation Xrotation
						End Site
						{
							OFFSET 0.000000 0.000000 0.000000
						}
					}
				}
			}
		}
	}
	JOINT RHipJoint
	{
		OFFSET 0.000000 0.000000 0.000000
		CHANNELS 3 Zrotation Yrotation Xrotation
		JOINT RightUpLeg
		{
			OFFSET -1.800000 -1.400000 0.085000
			CHANNELS 3 Zrotation Yrotation Xrotation
			JOINT RightLeg
			{
				OFFSET -2.215000 -6.000000 0.000000
				CHANNELS 3 Zrotation Yrotation Xrotation
				JOINT RightFoot
				{
					OFFSET -2.500000 -6.900000 0.000000
					CHANNELS 3 Zrotation Yrotation Xrotation
					JOINT RightToeBase
					{
						OFFSET -0.200000 -0.500000 1.950000
						CHANNELS 3 Zrotation Yrotation Xrotation
						End Site
						{
							OFFSET 0.000000 0.000000 0.000000
						}
					}
				}
			}
		}
	}
	JOINT LowerBack
	{
		OFFSET 0.000000 0.000000 0.000000
		CHANNELS 3 Zrotation Yrotation Xrotation
		JOINT Spine
		{
			OFFSET -0.087000 1.940000 -0.288900
			CHANNELS 3 Zrotation Yrotation Xrotation
			JOINT Spine1
			{
				OFFSET 0.000000 1.950000 0.060000
				CHANNELS 3 Zrotation Yrotation Xrotation
				JOINT Neck
				{
					OFFSET 0.000000 0.000000 0.000000
					CHANNELS 3 Zrotation Yrotation Xrotation
					JOINT Neck1
					{
						OFFSET 0.000000 1.600000 0.340000
						CHANNELS 3 Zrotation Yrotation Xrotation
						JOINT Head
						{
							OFFSET 0.000000 1.667000 -0.240000
							CHANNELS 3 Zrotation Yrotation Xrotation
							End Site
							{
								OFFSET 0.000000 0.000000 0.000000
							}
						}
					}
				}
				JOINT LeftShoulder
				{
					OFFSET 0.000000 0.000000 0.000000
					CHANNELS 3 Zrotation Yrotation Xrotation
					JOINT LeftArm
					{
						OFFSET 2.700000 1.550000 -0.730000
						CHANNELS 3 Zrotation Yrotation Xrotation
						JOINT LeftForeArm
						{
							OFFSET 5.450000 0.000000 0.000000
							CHANNELS 3 Zrotation Yrotation Xrotation
							JOINT LeftHand
							{
								OFFSET 3.450000 0.000000 0.000000
								CHANNELS 3 Zrotation Yrotation Xrotation
								JOINT LeftHandIndex1
								{
									OFFSET 0.750000 0.000000 0.000000
									CHANNELS 3 Zrotation Yrotation Xrotation
									End Site
									{
										OFFSET 0.000000 0.000000 0.000000
									}
								}
							}
						}
					}
				}
				JOINT RightShoulder
				{
					OFFSET 0.000000 0.000000 0.000000
					CHANNELS 3 Zrotation Yrotation Xrotation
					JOINT RightArm
					{
						OFFSET -2.700000 1.550000 -0.730000
						CHANNELS 3 Zrotation Yrotation Xrotation
						JOINT RightForeArm
						{
							OFFSET -5.450000 0.000000 0.000000
							CHANNELS 3 Zrotation Yrotation Xrotation
							JOINT RightHand
							{
								OFFSET -3.450000 0.000000 0.000000
								CHANNELS 3 Zrotation Yrotation Xrotation
								JOINT RightHandIndex1
								{
									OFFSET -0.750000 0.000000 0.000000
									CHANNELS 3 Zrotation Yrotation Xrotation
									End Site
									{
										OFFSET 0.000000 0.000000 0.000000
									}
								}
							}
						}
					}
				}
			}
		}
	}
}
MOTION
Frames: 9
Frame Time: 0.016667
0.323210 17.016470 0.085060 -1.517361 -0.024660 -7.871324 -15.317061 13.185005 2.420195 3.848065 1.997627 9.935192 -0.934208 6.420453 15.482583 0.374029 5.411420 2.866175 0.084940 0.009250 0.010940 18.317749 -10.925606 2.698985 -4.535438 -2.712711 8.620813 4.510920 -5.880451 9.876844 -0.492700 -5.201755 2.717185 0.103620 0.248810 0.064680 -3.433219 -1.456186 -6.355254 5.833324 0.608601 -6.654010 -2.642167 0.014093 20.927927 1.948152 -2.367307 -14.834761 -7.214424 1.687893 37.875509 -1.569860 0.020230 3.825480 27.605760 -15.929313 3.901419 38.897869 -14.244242 -0.736865 23.261266 -29.344784 -1.721810 -3.973196 3.719185 -0.058910 0.225640 -0.185720 0.092320 -30.237412 18.334465 6.816567 -38.813736 4.041499 0.672482 -22.821008 30.190922 -2.225815 2.622183 -2.261778 -0.093650 0.084080 0.018190 -0.018850 
0.310120 17.022820 0.150480 -1.529453 -0.054054 -6.469239 -15.328198 13.175805 2.425359 3.514634 1.915249 9.226405 -0.637588 6.129284 14.546594 0.370195 5.237370 2.938508 0.048680 -0.034140 -0.026220 18.311938 -10.886148 2.736820 -4.128502 -2.641103 7.966903 4.769422 -5.740582 9.005461 -0.461531 -5.105642 2.760917 0.066380 0.266560 0.067010 -3.411778 -1.512104 -6.428123 5.795945 0.407566 -7.130101 -2.794972 -0.188750 20.052954 1.988053 -2.785138 -15.804358 -7.553800 1.544458 35.347824 -1.250250 -0.218600 4.070650 29.226905 -15.809603 3.990245 40.411445 -11.949312 -1.235122 21.399113 -21.040141 -0.779878 -4.051753 3.692562 -0.066360 0.227250 -0.198120 0.097580 -31.901245 18.530614 6.731255 -40.886802 2.279872 0.319511 -20.383757 21.682346 -1.117921 2.727033 -2.200022 -0.092350 0.071570 0.027300 -0.004570 
0.299860 17.019350 0.207120 -1.406247 0.065645 -5.059567 -15.334289 13.187239 2.432734 3.596935 1.851154 8.282104 -1.143148 6.106989 13.814253 0.357965 5.130177 2.983354 0.020290 -0.067330 -0.047400 18.298178 -10.874890 2.746844 -4.428616 -2.541871 7.191177 5.511486 -5.774881 8.577318 -0.429186 -5.051732 2.785007 0.042350 0.277370 0.065780 -3.388178 -1.572622 -6.522282 5.715704 0.104637 -7.202946 -3.128587 -0.424279 18.848774 2.147320 -3.151610 -16.388403 -7.708995 1.570923 32.995358 -1.260610 -0.005150 4.020290 30.176779 -15.460922 4.157773 42.090703 -9.203198 -1.548645 20.632706 -14.031917 -0.383851 -4.137525 3.566603 -0.072960 0.231440 -0.210430 0.095200 -33.159726 18.507534 6.566671 -42.845842 0.605723 0.054277 -18.312146 14.694729 -0.564713 2.763126 -2.051678 -0.096780 0.062750 0.035590 -0.000890 
0.293440 17.012020 0.263690 -1.302247 0.145399 -3.524392 -15.343929 13.201972 2.474314 3.517161 1.772369 7.267908 -1.955461 6.137903 13.000870 0.340327 5.030376 3.014518 0.001300 -0.092520 -0.053910 18.278412 -10.836550 2.776336 -4.396667 -2.414766 6.324339 6.167751 -5.743186 8.062067 -0.397583 -4.962421 2.812968 0.023250 0.271350 0.065910 -3.349608 -1.669150 -6.662789 5.633379 -0.174808 -7.122530 -3.154717 -0.731439 17.371855 2.228977 -3.498795 -16.906314 -7.976000 1.684735 31.115228 -1.479430 0.388830 3.640240 31.481777 -14.487193 4.167234 43.557414 -6.207288 -1.219125 19.108239 -9.119110 -0.120222 -4.178470 3.441062 -0.070280 0.227880 -0.214580 0.083600 -34.631217 17.924294 6.419354 -44.296611 -1.052350 -0.078078 -16.890783 8.873138 -0.340603 2.767391 -1.852631 -0.098450 0.048720 0.044030 -0.006700 
0.282530 17.005150 0.329270 -1.250427 -0.106007 -1.846638 -15.321193 13.191321 2.533219 3.164696 1.683234 6.314184 -2.336761 6.007760 12.082351 0.329723 4.894966 3.071727 -0.029090 -0.131420 -0.079070 18.284877 -10.841117 2.818223 -4.177474 -2.252005 5.226537 6.335929 -5.597895 7.636455 -0.353570 -4.844900 2.857385 -0.004910 0.288370 0.070810 -3.393053 -1.687135 -6.836635 5.933036 -0.410551 -7.044240 -3.629107 -0.880766 15.705916 2.247752 -3.722435 -17.659085 -7.952615 1.503234 29.131159 -1.457320 0.337730 3.780400 33.241852 -13.258774 4.143332 44.540577 -3.135186 -0.684078 17.622069 -5.271251 -0.028251 -4.221812 3.308637 -0.080070 0.235410 -0.229150 0.084270 -36.486392 17.097174 6.241195 -45.142249 -3.059718 0.043712 -15.199767 4.392026 -0.289395 2.760277 -1.661646 -0.100360 0.037610 0.053870 0.001140 
0.269880 17.002960 0.380440 -0.888071 -0.369129 -0.238834 -15.315824 13.222014 2.639240 2.105579 1.636274 5.394058 -2.260606 5.747522 11.228539 0.330825 4.725199 3.141793 -0.062250 -0.164060 -0.115560 18.274485 -10.809647 2.850223 -3.616519 -2.013234 4.022274 5.312931 -5.167747 7.200643 -0.291729 -4.645264 2.933273 -0.032190 0.315540 0.077540 -3.387057 -1.861063 -7.039410 5.755487 -0.977211 -6.708611 -4.332684 -1.174457 14.183469 2.221217 -3.576813 -18.652022 -7.356639 1.559661 27.315678 -0.965680 0.382810 4.230510 35.505283 -11.504552 4.062995 45.043725 0.216303 0.013630 16.751001 -3.038150 -0.010316 -4.300340 3.224746 -0.103210 0.250560 -0.246380 0.091340 -38.857986 15.672892 5.978558 -45.094040 -5.162954 0.187584 -14.142794 1.018946 -0.365270 2.799387 -1.479939 -0.096770 0.024840 0.061200 0.018880 
0.257140 16.999580 0.424940 -0.799616 -0.755462 1.561534 -15.308745 13.260057 2.747293 1.339452 1.492717 4.301084 -2.180099 5.420135 10.000909 0.308669 4.546658 3.216938 -0.073330 -0.164680 -0.141530 18.259811 -10.771744 2.895342 -3.043559 -1.751077 2.571538 4.710659 -4.782428 6.683033 -0.229101 -4.460653 3.000155 -0.027550 0.353950 0.092970 -3.371831 -2.018223 -7.253612 5.706349 -1.554723 -6.094077 -4.572108 -1.649819 12.102944 2.201758 -3.364239 -19.210310 -6.525514 1.853188 24.777873 -0.764150 0.799120 4.228880 37.009403 -9.771488 3.997698 45.992805 3.547697 0.902759 16.056488 -1.599896 -0.034567 -4.398877 3.174330 -0.143160 0.285470 -0.270840 0.105090 -40.477058 14.030676 5.478259 -45.595905 -7.439347 0.700725 -13.015925 -1.186431 -0.550586 2.778064 -1.366774 -0.093670 0.017910 0.062690 0.036710 
0.246270 17.001730 0.455820 -0.615346 -0.977208 3.300500 -15.312387 13.316265 2.855898 0.564120 1.311207 3.018177 -2.248111 5.146435 9.001554 0.250909 4.402895 3.276508 -0.068420 -0.150340 -0.142530 18.226954 -10.752138 2.926541 -2.595184 -1.443925 0.911612 4.238555 -4.451412 6.465445 -0.165894 -4.284434 3.053373 0.002460 0.389420 0.112360 -3.310960 -2.182447 -7.418153 5.447944 -2.049759 -5.158797 -4.772206 -2.139199 9.505621 2.405125 -3.274508 -19.024387 -5.732240 1.797526 22.097914 -1.512090 1.326640 3.700310 36.785831 -8.060187 4.131376 47.445618 6.516054 1.963508 18.036680 -0.896548 0.047108 -4.623088 3.161699 -0.181610 0.331940 -0.297730 0.110510 -40.682208 12.647256 5.233042 -46.060980 -10.021484 1.513202 -13.465715 -2.546020 -0.654379 2.827635 -1.324558 -0.101020 0.021040 0.066630 0.039380 
0.245960 17.010760 0.471760 -0.430615 -1.212887 4.781089 -15.323802 13.374264 2.955787 -0.323438 1.133226 1.800199 -2.116430 4.846915 8.066911 0.184532 4.257973 3.331949 -0.050850 -0.122350 -0.128580 18.195142 -10.714673 2.929411 -2.338864 -1.160965 -0.686338 3.982763 -4.210928 6.456879 -0.114323 -4.119743 3.103601 0.039630 0.413430 0.126590 -3.242220 -2.389234 -7.523649 5.281205 -2.596286 -4.067582 -4.793645 -2.708469 7.429313 2.620719 -3.255651 -18.745962 -5.195659 2.168459 19.805481 -2.123150 2.168410 2.769660 36.513522 -6.360232 4.386629 48.723889 9.362037 3.005720 19.192619 0.998692 0.105135 -4.783837 3.061651 -0.202940 0.369140 -0.312650 0.114750 -40.780139 11.132386 5.092479 -46.279240 -12.540312 2.289039 -14.229311 -3.941043 -0.681668 2.915051 -1.262600 -0.111170 0.031850 0.064950 0.033390 
